STARTFONT 2.1
FONT HAN-GB2312
SIZE 16 72 72
FONTBOUNDINGBOX 7 16 0 0
STARTPROPERTIES 1
BITCOUNT 8
ENDPROPERTIES
CHARS 94
STARTCHAR  00A4
ENCODING  164
SWIDTH  1000 0
DWIDTH  6 0
BBX  7 9 -1 3
BITMAP
00206000006010
00E0FFC0C0FFC0
0030F0FFFFF030
0000F0E0E0F000
0000FFC0C0FF00
0000F0F0F0E000
00A0FFFFFFFFA0
0060E03000C060
00000000000000
ENDCHAR
STARTCHAR  00A7
ENCODING  167
SWIDTH  1000 0
DWIDTH  7 0
BBX  5 13 1 -2
BITMAP
40E0FFE040
E0FFA0FFE0
F0E000A0E0
A0FFC03000
40FFFFFF60
E0F040F0E0
FFE000E0F0
C0FFC0FF80
10A0FFFF60
A08030F0E0
F0E030E0F0
80FFFFFF80
0020402000
ENDCHAR
STARTCHAR  00A8
ENCODING  168
SWIDTH  1000 0
DWIDTH  4 0
BBX  4 2 0 11
BITMAP
80606080
FFC0C0FF
ENDCHAR
STARTCHAR  00B0
ENCODING  176
SWIDTH  1000 0
DWIDTH  5 0
BBX  3 4 1 7
BITMAP
60F060
F0A0F0
F0A0F0
60F060
ENDCHAR
STARTCHAR  00B1
ENCODING  177
SWIDTH  1000 0
DWIDTH  8 0
BBX  6 5 1 3
BITMAP
0000FFC00000
8080FFE08080
FFFFFFFFFFFF
0000FFC00000
0000FFC00000
ENDCHAR
STARTCHAR  00B7
ENCODING  183
SWIDTH  1000 0
DWIDTH  3 0
BBX  2 2 1 5
BITMAP
8060
FFC0
ENDCHAR
STARTCHAR  00D7
ENCODING  215
SWIDTH  1000 0
DWIDTH  6 0
BBX  6 6 0 2
BITMAP
10A010008040
10C0E0A0F030
0010F0FF4000
00A0E0C0E020
20E02000A060
000000000000
ENDCHAR
STARTCHAR  00E0
ENCODING  224
SWIDTH  1000 0
DWIDTH  7 0
BBX  7 13 0 0
BITMAP
0060FF60000000
00004080000000
0020FFFFA00000
0040FFFFE00000
0080FFE0F00000
00A0F0A0FF2000
00C0E080FF4000
00F0A060FF8000
20FF8030FFA000
40FF8030FFC000
60FFFFFFFFF000
A0FF6060E0FF20
C0E0000080FF40
ENDCHAR
STARTCHAR  00E1
ENCODING  225
SWIDTH  1000 0
DWIDTH  7 0
BBX  7 13 0 0
BITMAP
000000E0C01000
00003080000000
0020FFFFA00000
0040FFFFE00000
0080FFE0F00000
00A0F0A0FF2000
00C0E080FF4000
00F0A060FF8000
20FF8030FFA000
40FF8030FFC000
60FFFFFFFFF000
A0FF6060E0FF20
C0E0000080FF40
ENDCHAR
STARTCHAR  00E8
ENCODING  232
SWIDTH  1000 0
DWIDTH  7 0
BBX  5 13 1 0
BITMAP
40F0600000
0030800000
FFFFFFFFFF
FFE0808080
FFC0000000
FFC0000000
FFE0808000
FFFFFFFF00
FFC0000000
FFC0000000
FFC0000000
FFE0808080
FFFFFFFFFF
ENDCHAR
STARTCHAR  00E9
ENCODING  233
SWIDTH  1000 0
DWIDTH  7 0
BBX  5 13 1 0
BITMAP
0000C0E020
0020801000
FFFFFFFFFF
FFE0808080
FFC0000000
FFC0000000
FFE0808000
FFFFFFFF00
FFC0000000
FFC0000000
FFC0000000
FFE0808080
FFFFFFFFFF
ENDCHAR
STARTCHAR  00EA
ENCODING  234
SWIDTH  1000 0
DWIDTH  7 0
BBX  5 13 1 0
BITMAP
20E0F0A000
6060208040
FFFFFFFFFF
FFE0808080
FFC0000000
FFC0000000
FFE0808000
FFFFFFFF00
FFC0000000
FFC0000000
FFC0000000
FFE0808080
FFFFFFFFFF
ENDCHAR
STARTCHAR  00EC
ENCODING  236
SWIDTH  1000 0
DWIDTH  3 0
BBX  4 13 -1 0
BITMAP
10A0E010
00008060
0000FFC0
0000FFC0
0000FFC0
0000FFC0
0000FFC0
0000FFC0
0000FFC0
0000FFC0
0000FFC0
0000FFC0
0000FFC0
ENDCHAR
STARTCHAR  00ED
ENCODING  237
SWIDTH  1000 0
DWIDTH  3 0
BBX  3 13 1 0
BITMAP
30FF80
606000
FFC000
FFC000
FFC000
FFC000
FFC000
FFC000
FFC000
FFC000
FFC000
FFC000
FFC000
ENDCHAR
STARTCHAR  00F2
ENCODING  242
SWIDTH  1000 0
DWIDTH  7 0
BBX  5 13 1 0
BITMAP
20E0A00000
0010801000
30E0FFE030
E0FFA0FFE0
FFE000E0FF
FFC000C0FF
FFC000C0FF
FFC000C0FF
FFC000C0FF
FFC000C0FF
FFE000E0FF
E0FFA0FFE0
30E0FFE030
ENDCHAR
STARTCHAR  00F3
ENCODING  243
SWIDTH  1000 0
DWIDTH  7 0
BBX  5 13 1 0
BITMAP
000080E020
0000801000
30E0FFE030
E0FFA0FFE0
FFE000E0FF
FFC000C0FF
FFC000C0FF
FFC000C0FF
FFC000C0FF
FFC000C0FF
FFE000E0FF
E0FFA0FFE0
30E0FFE030
ENDCHAR
STARTCHAR  00F7
ENCODING  247
SWIDTH  1000 0
DWIDTH  8 0
BBX  6 7 1 2
BITMAP
000080600000
0000FFC00000
000000000000
FFFFFFFFFFFF
808080808080
000080600000
0000FFC00000
ENDCHAR
STARTCHAR  00F9
ENCODING  249
SWIDTH  1000 0
DWIDTH  7 0
BBX  5 13 1 0
BITMAP
20E0800000
0020800000
FFC000C0FF
FFC000C0FF
FFC000C0FF
FFC000C0FF
FFC000C0FF
FFC000C0FF
FFC000C0FF
FFC000C0FF
FFE000E0FF
E0FFA0FFE0
30E0FFE030
ENDCHAR
STARTCHAR  00FA
ENCODING  250
SWIDTH  1000 0
DWIDTH  7 0
BBX  5 13 1 0
BITMAP
0000A0E020
0010801000
FFC000C0FF
FFC000C0FF
FFC000C0FF
FFC000C0FF
FFC000C0FF
FFC000C0FF
FFC000C0FF
FFC000C0FF
FFE000E0FF
E0FFA0FFE0
30E0FFE030
ENDCHAR
STARTCHAR  00FC
ENCODING  252
SWIDTH  1000 0
DWIDTH  7 0
BBX  5 13 1 0
BITMAP
C0FF00FFC0
6080008060
FFC000C0FF
FFC000C0FF
FFC000C0FF
FFC000C0FF
FFC000C0FF
FFC000C0FF
FFC000C0FF
FFC000C0FF
FFE000E0FF
E0FFA0FFE0
30E0FFE030
ENDCHAR
STARTCHAR  0401
ENCODING  1025
SWIDTH  1000 0
DWIDTH  7 0
BBX  5 13 1 0
BITMAP
C0FF00FFC0
6080008060
FFFFFFFFFF
FFFF808080
FFFF000000
FFFF000000
FFFF808040
FFFFFFFF60
FFFF000000
FFFF000000
FFFF000000
FFFF808080
FFFFFFFFFF
ENDCHAR
STARTCHAR  0410
ENCODING  1040
SWIDTH  1000 0
DWIDTH  6 0
BBX  7 11 0 0
BITMAP
0020FFFFA00000
0040FFFFC00000
0080FFE0F00000
00A0F0A0FF2000
00E0E080FF4000
00F0A060FF6000
20FF8030FFA000
40FF8030FFC000
80FFFFFFFFF000
A0FF6060E0FF10
C0E0000080FF40
ENDCHAR
STARTCHAR  0411
ENCODING  1041
SWIDTH  1000 0
DWIDTH  7 0
BBX  5 11 1 0
BITMAP
FFFFFFFF80
FFE0808040
FFC0000000
FFC0000000
FFFFFFE030
FFE0A0FFE0
FFC000E0FF
FFC000C0FF
FFC000E0FF
FFE0A0FFE0
FFFFFFE030
ENDCHAR
STARTCHAR  0412
ENCODING  1042
SWIDTH  1000 0
DWIDTH  7 0
BBX  5 11 1 0
BITMAP
FFFFFFE040
FFE0A0FFE0
FFC000E0FF
FFC000E0F0
FFE0A0FF80
FFFFFFF040
FFC010E0E0
FFC000C0FF
FFC000E0FF
FFE0A0FFE0
FFFFFFE040
ENDCHAR
STARTCHAR  0413
ENCODING  1043
SWIDTH  1000 0
DWIDTH  6 0
BBX  5 11 1 0
BITMAP
FFFFFFFF80
FFE0808040
FFC0000000
FFC0000000
FFC0000000
FFC0000000
FFC0000000
FFC0000000
FFC0000000
FFC0000000
FFC0000000
ENDCHAR
STARTCHAR  0414
ENCODING  1044
SWIDTH  1000 0
DWIDTH  9 0
BBX  8 13 0 -2
BITMAP
00C0FFFFFFFFFF00
00C0FF8080E0FF00
00C0FF0000C0FF00
00C0FF0000C0FF00
00C0FF0000C0FF00
00C0FF0000C0FF00
00C0FF0000C0FF00
00C0FF0000C0FF00
00E0FF0000C0FF00
A0FFF08080E0FF80
FFFFFFFFFFFFFFFF
FFC000000000C0FF
4040000000004040
ENDCHAR
STARTCHAR  0415
ENCODING  1045
SWIDTH  1000 0
DWIDTH  7 0
BBX  5 11 1 0
BITMAP
FFFFFFFFFF
FFE0808080
FFC0000000
FFC0000000
FFE0808000
FFFFFFFF00
FFC0000000
FFC0000000
FFC0000000
FFE0808080
FFFFFFFFFF
ENDCHAR
STARTCHAR  0416
ENCODING  1046
SWIDTH  1000 0
DWIDTH  10 0
BBX  11 11 -1 0
BITMAP
00E0E00000FFC00030FFA0
0040FF6000FFC000A0F020
0000E0E000FFC020FFA000
000040FF60FFC0A0F02000
000000E0E0FFE0FFA00000
000000E0FFFFFFFFA00000
000040FFF0FFFFF0F01000
0000A0FF40FFE060FF6000
0010F0C000FFC010F0E000
0080FF6000FFC000A0FF30
00E0F01000FFC00030FFA0
ENDCHAR
STARTCHAR  0417
ENCODING  1047
SWIDTH  1000 0
DWIDTH  7 0
BBX  5 11 1 0
BITMAP
30E0FFE030
E0FFA0FFE0
FFE000E0FF
C08000E0F0
000080FF80
0000F0F040
201010F0E0
FFC000C0FF
FFE000E0FF
E0FFA0FFE0
30E0FFE030
ENDCHAR
STARTCHAR  0418
ENCODING  1048
SWIDTH  1000 0
DWIDTH  7 0
BBX  6 11 1 0
BITMAP
FFC000C0FFC0
FFC000F0FFC0
FFC030FFFFC0
FFC080E0FFC0
FFC0C0A0FFC0
FFE0F060FFC0
FFF0FF20FFC0
FFFFE000FFC0
FFFFA000FFC0
FFFF6000FFC0
FFFF2000FFC0
ENDCHAR
STARTCHAR  0419
ENCODING  1049
SWIDTH  1000 0
DWIDTH  7 0
BBX  6 13 1 0
BITMAP
00FFFFFFFF00
008080808000
FFC000C0FFC0
FFC000F0FFC0
FFC030FFFFC0
FFC080E0FFC0
FFC0C0A0FFC0
FFE0F060FFC0
FFF0FF20FFC0
FFFFE000FFC0
FFFFA000FFC0
FFFF6000FFC0
FFFF2000FFC0
ENDCHAR
STARTCHAR  041A
ENCODING  1050
SWIDTH  1000 0
DWIDTH  7 0
BBX  6 11 1 0
BITMAP
FFC00030FFA0
FFC000A0FF20
FFC020FFA000
FFC0A0FF2000
FFE0FFA00000
FFFFFFA00000
FFFFF0F01000
FFE060FF6000
FFC010F0E000
FFC000A0FF40
FFC00030FFA0
ENDCHAR
STARTCHAR  041B
ENCODING  1051
SWIDTH  1000 0
DWIDTH  8 0
BBX  8 11 0 0
BITMAP
0000FFFFFFFFFFC0
0000FFE08080FFC0
0000FFC00000FFC0
0000FFC00000FFC0
0000FFC00000FFC0
0000FFC00000FFC0
0000FFC00000FFC0
0000FFC00000FFC0
0000FFC00000FFC0
40C0FFA00000FFC0
80FFC0100000FFC0
ENDCHAR
STARTCHAR  041C
ENCODING  1052
SWIDTH  1000 0
DWIDTH  9 0
BBX  8 11 1 0
BITMAP
FFFFC00000E0FFC0
FFFFF00010FFFFC0
FFFFFF2030FFFFC0
FFF0FF4060F0FFC0
FFE0FF8080E0FFC0
FFC0E0A0A0A0FFC0
FFC0A0C0E080FFC0
FFC080F0F060FFC0
FFC060FFFF30FFC0
FFC030FFFF00FFC0
FFC000FFE000FFC0
ENDCHAR
STARTCHAR  041D
ENCODING  1053
SWIDTH  1000 0
DWIDTH  7 0
BBX  6 11 1 0
BITMAP
FFC00000FFC0
FFC00000FFC0
FFC00000FFC0
FFC00000FFC0
FFC00000FFC0
FFFFFFFFFFC0
FFE08080FFC0
FFC00000FFC0
FFC00000FFC0
FFC00000FFC0
FFC00000FFC0
ENDCHAR
STARTCHAR  041E
ENCODING  1054
SWIDTH  1000 0
DWIDTH  7 0
BBX  5 11 1 0
BITMAP
30E0FFE030
E0FFA0FFE0
FFE000E0FF
FFC000C0FF
FFC000C0FF
FFC000C0FF
FFC000C0FF
FFC000C0FF
FFE000E0FF
E0FFA0FFE0
30E0FFE030
ENDCHAR
STARTCHAR  041F
ENCODING  1055
SWIDTH  1000 0
DWIDTH  7 0
BBX  6 11 1 0
BITMAP
FFFFFFFFFFC0
FFE08080FFC0
FFC00000FFC0
FFC00000FFC0
FFC00000FFC0
FFC00000FFC0
FFC00000FFC0
FFC00000FFC0
FFC00000FFC0
FFC00000FFC0
FFC00000FFC0
ENDCHAR
STARTCHAR  0420
ENCODING  1056
SWIDTH  1000 0
DWIDTH  7 0
BBX  5 11 1 0
BITMAP
FFFFFFE030
FFE0A0FFE0
FFC000E0FF
FFC000C0FF
FFC000E0FF
FFE0A0FFE0
FFFFFFE030
FFC0000000
FFC0000000
FFC0000000
FFC0000000
ENDCHAR
STARTCHAR  0421
ENCODING  1057
SWIDTH  1000 0
DWIDTH  7 0
BBX  5 11 1 0
BITMAP
30E0FFE030
E0FFA0FFE0
FFE000E0FF
FFC000A0C0
FFC0000000
FFC0000000
FFC0002020
FFC000C0FF
FFE000E0FF
E0FFA0FFE0
30E0FFE030
ENDCHAR
STARTCHAR  0422
ENCODING  1058
SWIDTH  1000 0
DWIDTH  7 0
BBX  5 11 1 0
BITMAP
FFFFFFFFFF
8080FFE080
0000FFC000
0000FFC000
0000FFC000
0000FFC000
0000FFC000
0000FFC000
0000FFC000
0000FFC000
0000FFC000
ENDCHAR
STARTCHAR  0423
ENCODING  1059
SWIDTH  1000 0
DWIDTH  7 0
BBX  7 11 0 0
BITMAP
E0E0000000E0E0
80FF300020FFA0
40FF800060FF40
00F0C000A0FF10
00A0FF10E0C000
0060FF80FF8000
0010FFF0FF3000
0000C0FFE00000
000080FFA00000
00A0F0FF400000
00FFFFA0000000
ENDCHAR
STARTCHAR  0424
ENCODING  1060
SWIDTH  1000 0
DWIDTH  10 0
BBX  9 11 1 0
BITMAP
000000C0FF00000000
40E0FFFFFFFFF06000
E0FFA0E0FF80E0FF10
FFC000C0FF0080FF40
FFC000C0FF0080FF40
FFC000C0FF0080FF40
FFC000C0FF0080FF40
E0FFA0E0FF80E0FF10
40E0FFFFFFFFF06000
000000C0FF00000000
000000C0FF00000000
ENDCHAR
STARTCHAR  0425
ENCODING  1061
SWIDTH  1000 0
DWIDTH  7 0
BBX  7 11 0 0
BITMAP
80FF600040FF60
20FFA000A0F010
00C0F010F0A000
0060FFA0FF4000
0020FFFFF00000
0000E0FFC00000
0030FFF0FF1000
0080FF80FF6000
00E0C010FFC000
40FF6000C0FF20
A0FF100060FF80
ENDCHAR
STARTCHAR  0426
ENCODING  1062
SWIDTH  1000 0
DWIDTH  8 0
BBX  7 13 1 -2
BITMAP
FFC00000FFC000
FFC00000FFC000
FFC00000FFC000
FFC00000FFC000
FFC00000FFC000
FFC00000FFC000
FFC00000FFC000
FFC00000FFC000
FFC00000FFC000
FFE08080FFE060
FFFFFFFFFFFFC0
0000000000FFC0
00000000004030
ENDCHAR
STARTCHAR  0427
ENCODING  1063
SWIDTH  1000 0
DWIDTH  7 0
BBX  5 11 1 0
BITMAP
FFC000C0FF
FFC000C0FF
FFC000C0FF
FFC000C0FF
FFE000E0FF
E0FFA0FFFF
30E0FFFFFF
000000C0FF
000000C0FF
000000C0FF
000000C0FF
ENDCHAR
STARTCHAR  0428
ENCODING  1064
SWIDTH  1000 0
DWIDTH  10 0
BBX  9 11 1 0
BITMAP
FFC000C0FF0080FF40
FFC000C0FF0080FF40
FFC000C0FF0080FF40
FFC000C0FF0080FF40
FFC000C0FF0080FF40
FFC000C0FF0080FF40
FFC000C0FF0080FF40
FFC000C0FF0080FF40
FFC000C0FF0080FF40
FFE080E0FF80E0FF40
FFFFFFFFFFFFFFFF40
ENDCHAR
STARTCHAR  0429
ENCODING  1065
SWIDTH  1000 0
DWIDTH  10 0
BBX  9 13 1 -2
BITMAP
FFC000C0FF00C0FF00
FFC000C0FF00C0FF00
FFC000C0FF00C0FF00
FFC000C0FF00C0FF00
FFC000C0FF00C0FF00
FFC000C0FF00C0FF00
FFC000C0FF00C0FF00
FFC000C0FF00C0FF00
FFC000C0FF00C0FF00
FFE080E0FF80E0FF80
FFFFFFFFFFFFFFFFFF
00000000000000C0FF
000000000000003040
ENDCHAR
STARTCHAR  042A
ENCODING  1066
SWIDTH  1000 0
DWIDTH  8 0
BBX  7 11 0 0
BITMAP
80FFFFC0000000
4080FFC0000000
0000FFC0000000
0000FFC0000000
0000FFFFFFE030
0000FFE0A0FFE0
0000FFC000E0FF
0000FFC000C0FF
0000FFC000E0FF
0000FFE0A0FFE0
0000FFFFFFE030
ENDCHAR
STARTCHAR  042B
ENCODING  1067
SWIDTH  1000 0
DWIDTH  9 0
BBX  8 11 1 0
BITMAP
FFC000000000FFC0
FFC000000000FFC0
FFC000000000FFC0
FFC000000000FFC0
FFFFFFE03000FFC0
FFE0A0FFE000FFC0
FFC000E0FF00FFC0
FFC000C0FF00FFC0
FFC000E0FF00FFC0
FFE0A0FFE000FFC0
FFFFFFE03000FFC0
ENDCHAR
STARTCHAR  042C
ENCODING  1068
SWIDTH  1000 0
DWIDTH  7 0
BBX  5 11 1 0
BITMAP
FFC0000000
FFC0000000
FFC0000000
FFC0000000
FFFFFFE030
FFE0A0FFE0
FFC000E0FF
FFC000C0FF
FFC000E0FF
FFE0A0FFE0
FFFFFFE030
ENDCHAR
STARTCHAR  042D
ENCODING  1069
SWIDTH  1000 0
DWIDTH  7 0
BBX  5 11 1 0
BITMAP
40E0FFE030
E0FFA0FFE0
FFE000E0FF
A08000C0FF
008080E0FF
00E0FFFFFF
404000C0FF
FFC000C0FF
FFE000E0FF
E0FFA0FFE0
30E0FFE030
ENDCHAR
STARTCHAR  042E
ENCODING  1070
SWIDTH  1000 0
DWIDTH  10 0
BBX  8 11 1 0
BITMAP
FFC00030E0FFE030
FFC000C0FFA0FFE0
FFC000FFE000E0FF
FFC000FFC000C0FF
FFC000FFC000C0FF
FFFFFFFFC000C0FF
FFE080FFC000C0FF
FFC000FFC000C0FF
FFC000FFE000E0FF
FFC000E0FFA0FFE0
FFC00040E0FFE030
ENDCHAR
STARTCHAR  042F
ENCODING  1071
SWIDTH  1000 0
DWIDTH  7 0
BBX  6 11 0 0
BITMAP
0040E0FFFFFF
00E0FFA0E0FF
00FFE000C0FF
00FFC000C0FF
00E0E010C0FF
0040FFFFFFFF
00A0FFA0E0FF
00F0E000C0FF
00FFC000C0FF
00FFC000C0FF
10FFC000C0FF
ENDCHAR
STARTCHAR  0430
ENCODING  1072
SWIDTH  1000 0
DWIDTH  6 0
BBX  7 11 0 0
BITMAP
0020FFFFA00000
0040FFFFC00000
0080FFE0F00000
00A0F0A0FF2000
00E0E080FF4000
00F0A060FF6000
20FF8030FFA000
40FF8030FFC000
80FFFFFFFFF000
A0FF6060E0FF10
C0E0000080FF40
ENDCHAR
STARTCHAR  0431
ENCODING  1073
SWIDTH  1000 0
DWIDTH  7 0
BBX  5 11 1 0
BITMAP
FFFFFFFF80
FFE0808040
FFC0000000
FFC0000000
FFFFFFE030
FFE0A0FFE0
FFC000E0FF
FFC000C0FF
FFC000E0FF
FFE0A0FFE0
FFFFFFE030
ENDCHAR
STARTCHAR  0432
ENCODING  1074
SWIDTH  1000 0
DWIDTH  7 0
BBX  5 11 1 0
BITMAP
FFFFFFE040
FFE0A0FFE0
FFC000E0FF
FFC000E0F0
FFE0A0FF80
FFFFFFF040
FFC010E0E0
FFC000C0FF
FFC000E0FF
FFE0A0FFE0
FFFFFFE040
ENDCHAR
STARTCHAR  0433
ENCODING  1075
SWIDTH  1000 0
DWIDTH  6 0
BBX  5 11 1 0
BITMAP
FFFFFFFF80
FFE0808040
FFC0000000
FFC0000000
FFC0000000
FFC0000000
FFC0000000
FFC0000000
FFC0000000
FFC0000000
FFC0000000
ENDCHAR
STARTCHAR  0434
ENCODING  1076
SWIDTH  1000 0
DWIDTH  9 0
BBX  8 13 0 -2
BITMAP
00C0FFFFFFFFFF00
00C0FF8080E0FF00
00C0FF0000C0FF00
00C0FF0000C0FF00
00C0FF0000C0FF00
00C0FF0000C0FF00
00C0FF0000C0FF00
00C0FF0000C0FF00
00E0FF0000C0FF00
A0FFF08080E0FF80
FFFFFFFFFFFFFFFF
FFC000000000C0FF
4040000000004040
ENDCHAR
STARTCHAR  0435
ENCODING  1077
SWIDTH  1000 0
DWIDTH  7 0
BBX  5 11 1 0
BITMAP
FFFFFFFFFF
FFE0808080
FFC0000000
FFC0000000
FFE0808000
FFFFFFFF00
FFC0000000
FFC0000000
FFC0000000
FFE0808080
FFFFFFFFFF
ENDCHAR
STARTCHAR  0436
ENCODING  1078
SWIDTH  1000 0
DWIDTH  10 0
BBX  11 11 -1 0
BITMAP
00E0E00000FFC00030FFA0
0040FF6000FFC000A0F020
0000E0E000FFC020FFA000
000040FF60FFC0A0F02000
000000E0E0FFE0FFA00000
000000E0FFFFFFFFA00000
000040FFF0FFFFF0F01000
0000A0FF40FFE060FF6000
0010F0C000FFC010F0E000
0080FF6000FFC000A0FF30
00E0F01000FFC00030FFA0
ENDCHAR
STARTCHAR  0437
ENCODING  1079
SWIDTH  1000 0
DWIDTH  7 0
BBX  5 11 1 0
BITMAP
30E0FFE030
E0FFA0FFE0
FFE000E0FF
C08000E0F0
000080FF80
0000F0F040
201010F0E0
FFC000C0FF
FFE000E0FF
E0FFA0FFE0
30E0FFE030
ENDCHAR
STARTCHAR  0438
ENCODING  1080
SWIDTH  1000 0
DWIDTH  7 0
BBX  6 11 1 0
BITMAP
FFC000C0FFC0
FFC000F0FFC0
FFC030FFFFC0
FFC080E0FFC0
FFC0C0A0FFC0
FFE0F060FFC0
FFF0FF20FFC0
FFFFE000FFC0
FFFFA000FFC0
FFFF6000FFC0
FFFF2000FFC0
ENDCHAR
STARTCHAR  0439
ENCODING  1081
SWIDTH  1000 0
DWIDTH  7 0
BBX  6 13 1 0
BITMAP
00FFFFFFFF00
008080808000
FFC000C0FFC0
FFC000F0FFC0
FFC030FFFFC0
FFC080E0FFC0
FFC0C0A0FFC0
FFE0F060FFC0
FFF0FF20FFC0
FFFFE000FFC0
FFFFA000FFC0
FFFF6000FFC0
FFFF2000FFC0
ENDCHAR
STARTCHAR  043A
ENCODING  1082
SWIDTH  1000 0
DWIDTH  7 0
BBX  6 11 1 0
BITMAP
FFC00030FFA0
FFC000A0FF20
FFC020FFA000
FFC0A0FF2000
FFE0FFA00000
FFFFFFA00000
FFFFF0F01000
FFE060FF6000
FFC010F0E000
FFC000A0FF40
FFC00030FFA0
ENDCHAR
STARTCHAR  043B
ENCODING  1083
SWIDTH  1000 0
DWIDTH  8 0
BBX  8 11 0 0
BITMAP
0000FFFFFFFFFFC0
0000FFE08080FFC0
0000FFC00000FFC0
0000FFC00000FFC0
0000FFC00000FFC0
0000FFC00000FFC0
0000FFC00000FFC0
0000FFC00000FFC0
0000FFC00000FFC0
40C0FFA00000FFC0
80FFC0100000FFC0
ENDCHAR
STARTCHAR  043C
ENCODING  1084
SWIDTH  1000 0
DWIDTH  9 0
BBX  8 11 1 0
BITMAP
FFFFC00000E0FFC0
FFFFF00010FFFFC0
FFFFFF2030FFFFC0
FFF0FF4060F0FFC0
FFE0FF8080E0FFC0
FFC0E0A0A0A0FFC0
FFC0A0C0E080FFC0
FFC080F0F060FFC0
FFC060FFFF30FFC0
FFC030FFFF00FFC0
FFC000FFE000FFC0
ENDCHAR
STARTCHAR  043D
ENCODING  1085
SWIDTH  1000 0
DWIDTH  7 0
BBX  6 11 1 0
BITMAP
FFC00000FFC0
FFC00000FFC0
FFC00000FFC0
FFC00000FFC0
FFC00000FFC0
FFFFFFFFFFC0
FFE08080FFC0
FFC00000FFC0
FFC00000FFC0
FFC00000FFC0
FFC00000FFC0
ENDCHAR
STARTCHAR  043E
ENCODING  1086
SWIDTH  1000 0
DWIDTH  7 0
BBX  5 11 1 0
BITMAP
30E0FFE030
E0FFA0FFE0
FFE000E0FF
FFC000C0FF
FFC000C0FF
FFC000C0FF
FFC000C0FF
FFC000C0FF
FFE000E0FF
E0FFA0FFE0
30E0FFE030
ENDCHAR
STARTCHAR  043F
ENCODING  1087
SWIDTH  1000 0
DWIDTH  7 0
BBX  6 11 1 0
BITMAP
FFFFFFFFFFC0
FFE08080FFC0
FFC00000FFC0
FFC00000FFC0
FFC00000FFC0
FFC00000FFC0
FFC00000FFC0
FFC00000FFC0
FFC00000FFC0
FFC00000FFC0
FFC00000FFC0
ENDCHAR
STARTCHAR  0440
ENCODING  1088
SWIDTH  1000 0
DWIDTH  7 0
BBX  5 11 1 0
BITMAP
FFFFFFE030
FFE0A0FFE0
FFC000E0FF
FFC000C0FF
FFC000E0FF
FFE0A0FFE0
FFFFFFE030
FFC0000000
FFC0000000
FFC0000000
FFC0000000
ENDCHAR
STARTCHAR  0441
ENCODING  1089
SWIDTH  1000 0
DWIDTH  7 0
BBX  5 11 1 0
BITMAP
30E0FFE030
E0FFA0FFE0
FFE000E0FF
FFC000A0C0
FFC0000000
FFC0000000
FFC0002020
FFC000C0FF
FFE000E0FF
E0FFA0FFE0
30E0FFE030
ENDCHAR
STARTCHAR  0442
ENCODING  1090
SWIDTH  1000 0
DWIDTH  7 0
BBX  5 11 1 0
BITMAP
FFFFFFFFFF
8080FFE080
0000FFC000
0000FFC000
0000FFC000
0000FFC000
0000FFC000
0000FFC000
0000FFC000
0000FFC000
0000FFC000
ENDCHAR
STARTCHAR  0443
ENCODING  1091
SWIDTH  1000 0
DWIDTH  7 0
BBX  7 11 0 0
BITMAP
E0E0000000E0E0
80FF300020FFA0
40FF800060FF40
00F0C000A0FF10
00A0FF10E0C000
0060FF80FF8000
0010FFF0FF3000
0000C0FFE00000
000080FFA00000
00A0F0FF400000
00FFFFA0000000
ENDCHAR
STARTCHAR  0444
ENCODING  1092
SWIDTH  1000 0
DWIDTH  10 0
BBX  9 11 1 0
BITMAP
000000C0FF00000000
40E0FFFFFFFFF06000
E0FFA0E0FF80E0FF10
FFC000C0FF0080FF40
FFC000C0FF0080FF40
FFC000C0FF0080FF40
FFC000C0FF0080FF40
E0FFA0E0FF80E0FF10
40E0FFFFFFFFF06000
000000C0FF00000000
000000C0FF00000000
ENDCHAR
STARTCHAR  0445
ENCODING  1093
SWIDTH  1000 0
DWIDTH  7 0
BBX  7 11 0 0
BITMAP
80FF600040FF60
20FFA000A0F010
00C0F010F0A000
0060FFA0FF4000
0020FFFFF00000
0000E0FFC00000
0030FFF0FF1000
0080FF80FF6000
00E0C010FFC000
40FF6000C0FF20
A0FF100060FF80
ENDCHAR
STARTCHAR  0446
ENCODING  1094
SWIDTH  1000 0
DWIDTH  8 0
BBX  7 13 1 -2
BITMAP
FFC00000FFC000
FFC00000FFC000
FFC00000FFC000
FFC00000FFC000
FFC00000FFC000
FFC00000FFC000
FFC00000FFC000
FFC00000FFC000
FFC00000FFC000
FFE08080FFE060
FFFFFFFFFFFFC0
0000000000FFC0
00000000004030
ENDCHAR
STARTCHAR  0447
ENCODING  1095
SWIDTH  1000 0
DWIDTH  7 0
BBX  5 11 1 0
BITMAP
FFC000C0FF
FFC000C0FF
FFC000C0FF
FFC000C0FF
FFE000E0FF
E0FFA0FFFF
30E0FFFFFF
000000C0FF
000000C0FF
000000C0FF
000000C0FF
ENDCHAR
STARTCHAR  0448
ENCODING  1096
SWIDTH  1000 0
DWIDTH  10 0
BBX  9 11 1 0
BITMAP
FFC000C0FF0080FF40
FFC000C0FF0080FF40
FFC000C0FF0080FF40
FFC000C0FF0080FF40
FFC000C0FF0080FF40
FFC000C0FF0080FF40
FFC000C0FF0080FF40
FFC000C0FF0080FF40
FFC000C0FF0080FF40
FFE080E0FF80E0FF40
FFFFFFFFFFFFFFFF40
ENDCHAR
STARTCHAR  0449
ENCODING  1097
SWIDTH  1000 0
DWIDTH  10 0
BBX  9 13 1 -2
BITMAP
FFC000C0FF00C0FF00
FFC000C0FF00C0FF00
FFC000C0FF00C0FF00
FFC000C0FF00C0FF00
FFC000C0FF00C0FF00
FFC000C0FF00C0FF00
FFC000C0FF00C0FF00
FFC000C0FF00C0FF00
FFC000C0FF00C0FF00
FFE080E0FF80E0FF80
FFFFFFFFFFFFFFFFFF
00000000000000C0FF
000000000000003040
ENDCHAR
STARTCHAR  044A
ENCODING  1098
SWIDTH  1000 0
DWIDTH  8 0
BBX  7 11 0 0
BITMAP
80FFFFC0000000
4080FFC0000000
0000FFC0000000
0000FFC0000000
0000FFFFFFE030
0000FFE0A0FFE0
0000FFC000E0FF
0000FFC000C0FF
0000FFC000E0FF
0000FFE0A0FFE0
0000FFFFFFE030
ENDCHAR
STARTCHAR  044B
ENCODING  1099
SWIDTH  1000 0
DWIDTH  9 0
BBX  8 11 1 0
BITMAP
FFC000000000FFC0
FFC000000000FFC0
FFC000000000FFC0
FFC000000000FFC0
FFFFFFE03000FFC0
FFE0A0FFE000FFC0
FFC000E0FF00FFC0
FFC000C0FF00FFC0
FFC000E0FF00FFC0
FFE0A0FFE000FFC0
FFFFFFE03000FFC0
ENDCHAR
STARTCHAR  044C
ENCODING  1100
SWIDTH  1000 0
DWIDTH  7 0
BBX  5 11 1 0
BITMAP
FFC0000000
FFC0000000
FFC0000000
FFC0000000
FFFFFFE030
FFE0A0FFE0
FFC000E0FF
FFC000C0FF
FFC000E0FF
FFE0A0FFE0
FFFFFFE030
ENDCHAR
STARTCHAR  044D
ENCODING  1101
SWIDTH  1000 0
DWIDTH  7 0
BBX  5 11 1 0
BITMAP
40E0FFE030
E0FFA0FFE0
FFE000E0FF
A08000C0FF
008080E0FF
00E0FFFFFF
404000C0FF
FFC000C0FF
FFE000E0FF
E0FFA0FFE0
30E0FFE030
ENDCHAR
STARTCHAR  044E
ENCODING  1102
SWIDTH  1000 0
DWIDTH  10 0
BBX  8 11 1 0
BITMAP
FFC00030E0FFE030
FFC000C0FFA0FFE0
FFC000FFE000E0FF
FFC000FFC000C0FF
FFC000FFC000C0FF
FFFFFFFFC000C0FF
FFE080FFC000C0FF
FFC000FFC000C0FF
FFC000FFE000E0FF
FFC000E0FFA0FFE0
FFC00040E0FFE030
ENDCHAR
STARTCHAR  044F
ENCODING  1103
SWIDTH  1000 0
DWIDTH  7 0
BBX  6 11 0 0
BITMAP
0040E0FFFFFF
00E0FFA0E0FF
00FFE000C0FF
00FFC000C0FF
00E0E010C0FF
0040FFFFFFFF
00A0FFA0E0FF
00F0E000C0FF
00FFC000C0FF
00FFC000C0FF
10FFC000C0FF
ENDCHAR
STARTCHAR  0451
ENCODING  1105
SWIDTH  1000 0
DWIDTH  7 0
BBX  5 13 1 0
BITMAP
C0FF00FFC0
6080008060
FFFFFFFFFF
FFFF808080
FFFF000000
FFFF000000
FFFF808040
FFFFFFFF60
FFFF000000
FFFF000000
FFFF000000
FFFF808080
FFFFFFFFFF
ENDCHAR
STARTCHAR  2014
ENCODING  8212
SWIDTH  1000 0
DWIDTH  16 0
BBX  16 2 0 5
BITMAP
80808080808080808080808080808080
FFFFFFFFFFFFFFFFFFFFFFFFFFFFFFFF
ENDCHAR
STARTCHAR  2018
ENCODING  8216
SWIDTH  1000 0
DWIDTH  3 0
BBX  2 3 1 8
BITMAP
8060
F080
FFC0
ENDCHAR
STARTCHAR  2019
ENCODING  8217
SWIDTH  1000 0
DWIDTH  3 0
BBX  2 4 1 7
BITMAP
FFC0
C0A0
A040
1000
ENDCHAR
STARTCHAR  201C
ENCODING  8220
SWIDTH  1000 0
DWIDTH  6 0
BBX  4 3 1 8
BITMAP
806040A0
F080C0C0
FFC0C0FF
ENDCHAR
STARTCHAR  201D
ENCODING  8221
SWIDTH  1000 0
DWIDTH  6 0
BBX  4 4 1 7
BITMAP
FFC0C0FF
C0A080F0
A0406080
10000000
ENDCHAR
STARTCHAR  2026
ENCODING  8230
SWIDTH  1000 0
DWIDTH  8 0
BBX  7 2 1 0
BITMAP
80606080408020
FFC0C0FF80FF40
ENDCHAR
STARTCHAR  2030
ENCODING  8240
SWIDTH  1000 0
DWIDTH  15 0
BBX  13 11 1 0
BITMAP
80F080000000C0300000000000
F0A0F0000030C0000000000000
FF00FF0000A040000000000000
FF00FF0020E000000000000000
FF00FF00806080F0800080F080
FF20FF10E000F020F000F020F0
E0FFE0808000FF00FF00FF00FF
308030E01000FF00FF00FF00FF
000060800000FF00FF00FF00FF
0000E0200000F0A0F000F0A0F0
0040A000000080F0800080F080
ENDCHAR
STARTCHAR  2116
ENCODING  8470
SWIDTH  1000 0
DWIDTH  11 0
BBX  11 12 0 0
BITMAP
2030200010202020100000
A0FFE000A0FFFFFF600000
A0FFFF10A0FF1010000000
A0FFFF60A0FF0010601000
A0FFE0A0A0FF00A0FFE000
A0FFA0E0A0FF00F040FF20
A0FF40FFC0FF00FF00FF20
A0FF10FFF0FF00F030FF20
A0FF00C0FFFF00A0FFE000
A0FF0080FFFF0010602000
A0FF0030FFFF0030303020
A0FF0000F0FF00FFFFFFE0
ENDCHAR
ENDFONT
